<svg width="342" height="746" viewBox="0 0 342 746" fill="none" xmlns="http://www.w3.org/2000/svg">
<path d="M22.634 0.505085C33.3352 0.493602 46.9688 0.503065 58.3333 0.518565C59.8605 0.520648 61.3466 0.52284 62.7792 0.525104C66.5692 0.531034 64.6501 0.557538 67.2664 0.562824C72.3834 0.573129 77.1505 0.56013 82.2072 0.572406C83.883 0.576605 81.797 0.618587 83.5542 0.622028C93.1834 0.640582 102.293 0.629888 112.048 0.638813C112.921 0.639613 113.794 0.640404 114.667 0.641186C133.519 0.658073 152.252 0.670691 171 0.680955C189.718 0.691203 208.452 0.699104 227.333 0.706564C236.832 0.710317 246.369 0.713958 255.96 0.717731C264.533 0.721083 274.094 0.733531 283.667 0.741847C292.001 0.749088 300.346 0.753196 308.055 0.745441C309.989 0.743458 308.836 0.706608 309.204 0.703571C314.974 0.657075 313.055 0.731467 316.823 0.741351C324.293 0.760848 332.182 0.771451 340 0.775408C340.097 0.774598 340.218 0.789648 340.317 0.816994C340.42 0.844662 340.52 0.886064 340.612 0.939651C340.705 0.9932 340.79 1.05886 340.866 1.13435C340.941 1.20983 341.007 1.2952 341.06 1.38769C341.114 1.48023 341.155 1.57987 341.183 1.68324C341.21 1.7822 341.225 1.90373 341.224 2C341.221 9.29667 341.224 16.5038 341.23 23.2231C341.237 29.3453 341.31 23.207 341.269 29.3713C341.266 29.7994 341.227 28.246 341.223 29.925C341.213 33.7326 341.22 40.9563 341.217 43.9072C341.211 49.5943 341.211 50.5352 341.211 55.9144C341.21 63.268 341.191 72.0142 341.199 79.9041C341.201 81.5881 341.242 79.3586 341.248 82.0444C341.255 84.7326 341.252 91.8441 341.242 94.2416C341.233 96.6398 341.201 95.6187 341.194 96.0431C341.133 99.5346 341.218 107.761 341.22 108.819C341.23 114.646 341.234 120.222 341.233 125.667C341.231 138.254 341.207 150.136 341.207 162.781C341.207 176.533 341.223 191.238 341.221 204.323C341.218 219.912 341.197 233.125 341.2 248.269C341.201 249.645 341.236 248.45 341.246 249.333C341.247 249.477 341.248 249.675 341.248 249.947C341.254 270.687 341.249 291.283 341.217 311.933C341.214 314.004 341.172 311.335 341.167 313.404C341.133 326.072 341.051 346.116 341.231 353.64C341.226 359.714 341.221 366.709 341.206 373C341.199 375.596 341.191 378.073 341.18 380.316C341.157 385.265 341.112 380.458 341.131 386.538C341.135 387.909 341.175 386.126 341.178 388.183C341.193 396.841 341.18 406.301 341.2 414.866C341.205 416.608 341.24 416.133 341.246 416.626C341.298 420.775 341.213 427.682 341.207 429.187C341.16 440.652 341.179 449.025 341.177 459.705C341.177 462.184 341.225 459.254 341.226 461.639C341.233 473.239 341.229 485.23 341.211 496.667C341.21 497.425 341.209 498.18 341.208 498.933C341.203 501.627 341.162 499.15 341.158 500.437C341.139 506.114 341.216 507.372 341.199 512.816C341.196 513.964 341.161 513.317 341.157 513.527C341.098 516.803 341.182 519.65 341.184 520.493C341.21 531.154 341.121 537.968 341.134 548.268C341.135 549.5 341.179 546.721 341.181 550.185C341.193 573.202 341.181 597.542 341.146 620.333C341.146 620.389 341.146 620.445 341.146 620.501C341.141 624.052 341.108 621.517 341.104 621.74C341.04 625.382 341.125 627.739 341.128 628.897C341.151 638.031 341.08 646.564 341.181 652.771C341.154 683.285 341.183 713.69 341.152 743.999C341.153 744.094 341.139 744.204 341.113 744.298C341.087 744.395 341.048 744.489 340.998 744.576C340.947 744.663 340.885 744.743 340.814 744.814C340.743 744.885 340.663 744.947 340.576 744.997C340.489 745.047 340.395 745.086 340.298 745.112C340.204 745.138 340.093 745.151 340 745.151C332.408 745.143 324.821 745.13 317.24 745.112C316.752 745.111 317.626 745.069 316.653 745.068C304.935 745.044 307.185 745.109 299.432 745.189C297.478 745.209 291.537 745.113 291.011 745.106C289.096 745.08 291.082 745.017 290.441 745.012C286.809 744.985 286.067 745.073 283.667 745.131C282.559 745.158 281.099 745.179 278.838 745.179C278.614 745.179 279.555 745.141 278.954 745.137C277.087 745.125 275.236 745.14 273.409 745.127C269.228 745.097 267.739 744.997 261.352 745.055C260.544 745.063 261.778 745.179 255.386 745.174C252.838 745.172 241.557 745.174 238.396 745.166C235.238 745.159 237.406 745.121 237.181 745.119C228.673 745.069 231.899 745.049 227.636 744.975C227.532 744.973 227.431 744.971 227.333 744.97C223.43 744.91 224.514 745.077 222.819 745.096C221.078 745.116 214.84 745.075 213.307 745.06C211.775 745.046 213.686 745.022 212.324 745.014C203.29 744.961 208.359 745.101 205.382 745.129C198.365 745.195 192.899 745.065 186.475 745.052C184.736 745.049 186.155 745.078 184.607 745.081C179.48 745.09 176.062 745.063 171 745.076C170.01 745.078 168.956 745.082 167.815 745.088C166.674 745.094 161.036 745.172 157.386 745.115C156.869 745.107 158.338 745.074 155.725 745.067C151.823 745.056 144.79 745.049 140.594 745.06C137.497 745.068 141.047 745.121 137.148 745.105C135.416 745.097 138.627 745.066 135.372 745.055C132.134 745.044 123.854 745.045 120.704 745.046C117.559 745.047 119.28 745.088 119.026 745.09C118.267 745.098 116.414 745.107 114.667 745.113C112.872 745.12 111.19 745.125 110.919 745.125C92.7948 745.129 75.6207 745.099 58.3333 745.086C49.9614 745.08 41.563 745.077 33.0172 745.085C30.9617 745.086 32.3309 745.129 32.0173 745.13C24.9804 745.148 30.5286 745.034 25.6129 744.996C26.3234 745.083 23.4215 745.067 18.4648 745.077C16.0761 745.081 17.3771 745.115 17.1591 745.118C13.6168 745.169 11.1504 745.103 10.515 745.09C8.16914 745.04 5.61622 745.099 4.01976 745.066C2.50507 745.035 5.73823 744.989 2.00035 744.985C1.91638 744.985 1.83184 744.975 1.74497 744.952C1.66493 744.93 1.58464 744.898 1.50748 744.853C1.47004 744.831 1.43336 744.807 1.39794 744.78C1.35912 744.751 1.32738 744.724 1.30102 744.699C1.09758 744.47 1.15266 744.573 1.27114 744.729C1.32767 744.797 1.40587 744.865 1.4734 744.912C1.59966 744.993 1.66971 745.038 1.45496 744.944C1.39549 744.913 1.31456 744.863 1.22361 744.776C1.16474 744.72 1.10193 744.647 1.04514 744.551C1.00081 744.477 0.960354 744.389 0.931971 744.286C0.908342 744.202 0.892681 744.099 0.892446 744C0.892446 744 0.892446 744.001 0.892446 743.999C0.891434 743.852 0.890583 743.685 0.88991 743.5C0.840231 729.882 0.903813 704.462 0.910418 693.513C0.917017 682.585 0.911296 679.056 0.922503 672.688C0.942767 661.186 0.882642 665.401 0.85512 658.26C0.827603 651.097 0.975539 654.579 1.00734 653.549C1.03913 652.539 1.00641 651.435 1.02388 650.178C1.04135 648.925 1.06298 651.638 1.06954 648.69C1.07609 645.741 1.01954 637.679 0.986285 636.633C0.915836 634.424 0.841897 638.057 0.867877 630.254C0.869419 629.805 0.908318 631.261 0.912249 629.543C0.918936 626.496 0.924222 623.422 0.928694 620.333C0.944252 609.59 0.949966 598.672 0.970538 588.084C0.97424 586.21 1.01751 587.886 1.02016 586.795C1.04784 575.433 0.974872 579.494 0.893817 573.267C1.00168 574.665 1.06768 571.222 1.06832 562.599C1.06874 557.415 1.02162 558.307 0.988421 554.955C0.978411 553.949 1.01076 550.281 0.988604 549.616C0.91618 547.425 0.835106 550.88 0.867388 541.989C0.868923 541.599 0.908567 542.841 0.910967 541.493C0.926682 532.781 0.850928 531.739 0.841754 522.321C0.835431 515.838 0.870295 504.922 0.883966 496.667C0.88586 495.523 0.887348 494.43 0.888262 493.406C1.00954 493.583 0.981767 485.644 0.89815 482.424C0.901573 476.969 0.896846 471.078 0.908404 465.806C0.912344 463.991 0.947457 465.183 0.95125 464.954C1.01077 461.446 0.929415 459.074 0.926226 457.897C0.895224 445.136 0.956881 434.74 0.896624 422.561C0.894454 422.129 0.810213 421.429 0.871722 418.173C0.875962 417.963 0.91429 421.985 0.917254 416.256C0.920225 410.526 0.965384 399.725 0.926348 391.771C0.916951 389.846 0.848564 384.977 0.901995 381.069C0.909251 380.549 0.933411 381.118 0.946856 380.367C0.989695 377.937 0.904549 376.611 0.976885 373.756C0.982758 373.524 0.98851 373.272 0.994097 373C1.05733 369.922 1.09934 364.31 1.05348 356.939C1.05203 356.684 0.984546 354.785 0.985613 352.262C0.987375 348.235 1.00143 342.518 1.00099 338.313C1.00076 336.299 0.958853 337.588 0.958086 337.238C0.934604 323.701 0.971963 314.066 0.988177 299.564C0.991232 296.906 0.934086 289.266 0.979266 284.119C1.02872 278.468 1.23446 284.275 1.18544 271.286C1.16584 266.046 0.904826 259.414 1.04006 249.998C1.03965 249.776 1.03926 249.555 1.03888 249.333C1.00821 231.327 1.07518 214.629 1.02791 196.54C1.02579 195.717 0.952945 193.113 0.953936 191.177C0.955549 188.303 0.989596 186.726 0.991839 184.673C1.00209 176.075 0.972965 168.206 0.977496 159.915C0.979142 156.768 1.01435 157.868 1.01631 154.114C1.01825 150.362 0.971891 147.861 0.99428 142.776C1.01135 138.936 1.1061 135.097 1.11714 130.001C1.05694 129.875 1.03632 128.379 1.02267 125.667C1.01513 124.168 1.00971 122.298 1.00093 120.084C0.996146 118.888 0.963616 120.171 0.959673 119.605C0.942907 117.303 0.969868 115.172 0.951617 112.986C0.947233 112.454 0.915315 112.429 0.90993 111.994C0.862924 108.297 0.934721 102.206 0.947222 101.16C0.994698 97.151 0.953185 95.2773 0.97188 92.2023C0.990574 89.1321 1.01394 93.7227 1.02529 90.1364C1.04875 82.7025 1.04359 73.1512 1.04506 65.6013C1.04545 62.5889 1.00284 64.6441 1.00191 64.213C0.991103 57.9839 1.03642 51.6848 0.951556 48.231C1.17099 43.9121 0.930271 44.4746 0.9742 35.5709C0.977753 34.8696 1.08152 33.9772 1.09676 36.67C1.11198 39.3626 1.07954 43.4455 1.10329 47.1815C1.10886 48.0662 1.2061 53.1339 1.21199 53.8255C1.25803 59.2419 1.10296 60.0093 1.09444 60.296C1.00252 63.5455 1.10728 69.7386 1.11452 71.3694C1.14769 78.8302 1.12588 85.1688 1.14955 91.4089C1.16485 95.4901 1.26643 95.8895 1.26332 99.0943C1.25305 109.748 1.11134 113.466 1.23421 123.505C1.24935 124.749 1.29281 124.56 1.30997 125.667C1.3225 126.475 1.32099 127.976 1.28414 131.232C1.27863 131.716 1.19877 137.443 1.24928 140.752C1.25565 141.167 1.28801 141.154 1.29073 141.702C1.30831 145.375 1.28253 147.824 1.29488 151.825C1.30722 155.826 1.32563 160.636 1.31465 165.204C1.30809 167.957 1.24781 171.489 1.23305 172.807C1.19053 176.528 1.26024 180.517 1.20876 182.822C1.15701 185.147 1.07843 180.603 1.045 186.698C1.12906 186.924 1.21534 187.442 1.29988 187.805C1.29692 201.164 1.26974 214.308 1.27345 227.711C1.274 229.373 1.31919 227.673 1.32094 229.455C1.3275 236.321 1.30118 242.392 1.30636 249.333C1.30685 249.99 1.30762 250.655 1.30873 251.329C1.31884 257.362 1.36668 263.977 1.37874 270.286C1.28255 274.139 1.3152 283.5 1.30641 290.3C1.30338 292.683 1.27768 292.523 1.2693 294.217C1.23831 300.609 1.32331 297.614 1.33669 299.366C1.39378 306.883 1.20138 307.526 1.20613 316.389C1.20632 316.859 1.30888 322.598 1.31526 323.388C1.35691 328.411 1.27957 324.22 1.27199 327.363C1.25814 333.103 1.23365 337.091 1.26369 343.825C1.27259 345.788 1.33651 350.498 1.28706 354.311C1.28059 354.813 1.24669 354.536 1.24471 354.939C1.21161 362.248 1.31813 362.44 1.3542 366.616C1.37053 368.507 1.3644 370.864 1.35082 373C1.33442 375.581 1.30715 377.839 1.29555 378.557C1.24073 381.992 1.27212 375.925 1.26674 375.739C1.20272 373.554 1.21374 378.259 1.20833 381.854C1.10389 382.375 1.11016 387.402 1.20314 385.581C1.2133 385.374 1.20356 382.576 1.20833 381.854C1.3108 385.01 1.32392 390.535 1.22817 396.638C1.18329 399.495 1.13096 396.794 1.1501 405.472C1.15874 409.41 1.23066 407.889 1.25026 411.364C1.29499 419.304 1.22791 429.622 1.23848 437.808C1.24232 440.779 1.28168 437.885 1.28566 439.915C1.29634 445.304 1.26681 450.056 1.28194 455.468C1.28336 455.958 1.32456 454.76 1.32509 456.443C1.32988 469.201 1.30348 480.309 1.30275 493.63C1.3027 494.548 1.30313 495.57 1.30387 496.667C1.30835 503.252 1.32449 512.523 1.32057 518.239C1.3129 529.794 1.25298 544.009 1.26753 553.88C1.27685 560.319 1.31807 558.906 1.34615 561.665C1.40058 566.988 1.30308 576.411 1.28798 577.68C1.28748 577.719 1.27776 572.179 1.25661 575.135C1.21253 576.854 1.28779 577.618 1.28798 577.68C1.27823 578.513 1.26887 589.58 1.27675 591.778C1.28106 592.972 1.3201 592.304 1.32161 592.927C1.34313 602.04 1.35516 611.163 1.35697 620.333C1.35809 626.054 1.35524 631.793 1.34822 637.559C1.34743 637.823 1.30376 637.425 1.30245 638.047C1.28303 646.736 1.33646 652.3 1.36818 659.466C1.39989 666.631 1.38927 672.314 1.31429 676.556C1.32373 681.962 1.29058 689.719 1.27046 694.182C1.25035 698.645 1.33537 699.268 1.33705 699.661C1.39085 711.91 1.34218 718.991 1.33461 731.699C1.33271 734.765 1.33495 739.361 1.33883 744C1.34014 744.074 1.34595 744.109 1.36139 744.171C1.3763 744.227 1.39854 744.28 1.42749 744.33C1.45641 744.38 1.49201 744.426 1.53296 744.467C1.57391 744.508 1.62019 744.543 1.67006 744.572C1.72 744.601 1.77345 744.623 1.82888 744.638C1.89117 744.653 1.92581 744.659 2.00035 744.66C5.97051 744.656 9.84942 744.652 12.6967 744.648C17.8666 744.64 20.9813 744.66 25.7451 744.647C26.3896 744.646 25.7384 744.608 25.9352 744.606C31.2518 744.561 28.6967 744.653 29.7943 744.67C33.774 744.73 36.2327 744.762 43.0411 744.734C44.6115 744.727 49.1859 744.594 52.0486 744.586C55.7705 744.576 54.3658 744.624 58.2629 744.613C58.2883 744.613 58.3114 744.612 58.3333 744.612C58.6 744.607 58.7102 744.582 60.9321 744.583C72.0967 744.589 84.269 744.606 95.8711 744.603C97.4559 744.603 95.4241 744.556 97.714 744.555C103.2 744.552 108.954 744.551 114.667 744.554C120.143 744.557 125.579 744.562 130.703 744.573C133.279 744.579 131.664 744.611 132.223 744.621C135.657 744.68 140.527 744.594 141.33 744.593C152.085 744.57 161.423 744.584 171 744.594C178.49 744.603 186.125 744.608 194.697 744.592C195.76 744.59 203.945 744.499 207.597 744.577C207.847 744.582 211.46 744.663 214.654 744.608C214.853 744.604 212.601 744.563 216.53 744.567C219.32 744.57 223.317 744.557 227.333 744.566C228.973 744.569 230.616 744.576 232.181 744.589C233.891 744.604 237.932 744.684 243.032 744.62C243.364 744.615 251.237 744.471 254.047 744.571C254.503 744.587 254.026 744.692 260.113 744.638C261.276 744.628 259.165 744.604 262.228 744.59C266.923 744.567 273.142 744.595 278.913 744.548C279.545 744.543 281.47 744.513 283.667 744.505C284.967 744.5 286.362 744.503 287.639 744.523C288.177 744.531 287.155 744.566 288.97 744.57C297.599 744.589 306.635 744.566 315.397 744.59C318.501 744.599 316.914 744.656 320.149 744.671C323.385 744.686 329.903 744.701 333.288 744.675C336.674 744.649 332.975 744.558 338.048 744.551C338.699 744.55 339.35 744.549 340 744.548C340.069 744.546 340.087 744.542 340.142 744.529C340.188 744.517 340.232 744.499 340.273 744.474C340.315 744.451 340.353 744.421 340.387 744.387C340.421 744.353 340.45 744.315 340.474 744.273C340.498 744.232 340.516 744.188 340.528 744.142C340.541 744.087 340.545 744.07 340.546 743.999C340.525 723.142 340.573 702.45 340.58 681.603C340.581 678.337 340.549 681.044 340.548 676.232C340.546 661.154 340.524 636.769 340.56 620.333C340.566 617.426 340.574 614.767 340.584 612.452C340.64 600.115 340.682 615.64 340.704 606.213C340.715 601.664 340.609 596.742 340.606 595.644C340.572 584.915 340.619 577.459 340.605 567.803C340.602 565.809 340.559 567.765 340.557 566.068C340.55 560.271 340.569 554.179 340.565 548.639C340.564 546.155 340.531 546.612 340.533 544.326C340.539 538.855 340.553 534.016 340.583 528.683C340.586 528.196 340.627 531.474 340.628 527.426C340.631 520.875 340.661 512.743 340.63 505.205C340.62 502.969 340.546 502.881 340.597 498.074C340.604 497.451 340.641 497.704 340.649 496.667C340.655 496.026 340.65 494.891 340.62 492.752C340.607 491.81 340.503 482.403 340.57 477.786C340.588 476.568 340.661 473.46 340.65 470.77C340.648 470.406 340.608 471.867 340.604 469.638C340.591 461.784 340.595 453.552 340.582 445.483C340.579 443.329 340.538 446.538 340.534 443.326C340.523 434.495 340.534 423.469 340.547 414.833C340.552 411.649 340.586 413.85 340.59 413.618C340.651 409.893 340.568 407.69 340.564 406.454C340.535 398.764 340.574 392.908 340.563 385.819C340.561 383.863 340.522 385.25 340.518 384.861C340.484 380.822 340.554 383.831 340.562 381.274C340.57 378.603 340.575 375.818 340.577 373C340.581 368.261 340.579 363.429 340.576 358.888C340.574 356.228 340.529 359.217 340.527 356.83C340.52 342.7 340.524 328.012 340.549 314.222C340.554 311.626 340.589 313.259 340.597 312.718C340.652 308.988 340.576 303.522 340.569 302.265C340.536 296.546 340.567 294.324 340.561 289.274C340.547 276.875 340.545 263.012 340.548 249.333C340.551 235.795 340.559 222.435 340.565 210.851C340.582 180.504 340.615 156.955 340.606 128.016C340.606 126.176 340.559 128.031 340.558 126.445C340.558 126.186 340.558 125.926 340.558 125.667C340.548 105.464 340.565 85.5617 340.552 65.3103C340.551 63.6271 340.507 66.0534 340.504 63.3518C340.497 57.8104 340.499 50.7909 340.513 45.1881C340.52 42.4554 340.558 46.1208 340.564 43.3701C340.578 36.9651 340.581 30.0995 340.574 23.5206C340.571 20.7209 340.526 24.945 340.526 21.3059C340.524 14.8473 340.523 8.41874 340.523 2C340.521 1.93153 340.517 1.91752 340.505 1.86437C340.493 1.82062 340.476 1.77847 340.453 1.73901C340.43 1.69958 340.402 1.66291 340.37 1.63048C340.337 1.59804 340.3 1.56988 340.261 1.54708C340.221 1.52424 340.179 1.50678 340.136 1.49509C340.082 1.48265 340.069 1.47921 340 1.47745C322.311 1.47804 304.684 1.47023 286.693 1.4283C285.751 1.4261 284.872 1.39751 283.667 1.37506C282.676 1.35661 281.465 1.34231 279.818 1.35024C279.543 1.37566 279.558 1.40558 279.438 1.43276C262.015 1.43982 244.678 1.43608 227.333 1.42976C208.753 1.42298 190.163 1.41326 171.447 1.41072C171.209 1.41069 171.072 1.41185 171 1.41382C170.881 1.41707 170.936 1.42254 171 1.42858C171.074 1.43556 171.16 1.4433 171 1.44921C170.845 1.45495 170.458 1.45898 169.604 1.45894C152.508 1.45822 135.907 1.47167 118.419 1.42342C116.992 1.41954 117.34 1.3611 114.667 1.34763C114.089 1.34472 113.37 1.34391 112.461 1.34621C111.559 1.34856 103.858 1.35996 101.867 1.3785C101.596 1.38129 103.001 1.42116 100.52 1.42232C86.6795 1.42813 72.2027 1.41998 58.3333 1.39778C57.751 1.39685 57.1697 1.3959 56.5896 1.39491C54.2662 1.39091 56.7405 1.34845 55.0856 1.34523C43.3469 1.3227 30.5785 1.35497 19.3615 1.31642C11.8533 1.29047 14.6331 1.21709 10.6433 1.14485C10.079 1.13466 5.42966 1.13305 5.18923 1.09102C4.57197 0.98534 6.82396 0.869621 5.89991 0.756976C5.70468 0.732713 -0.521957 0.758846 3.16461 0.700214C3.42216 0.69629 7.9365 0.67683 9.04839 0.65694C9.82252 0.643188 8.42751 0.600447 10.007 0.582843C11.5863 0.565256 13.3218 0.601085 15.9403 0.580402C18.5577 0.559464 17.4068 0.510841 22.634 0.505085ZM1.18056 714.279C1.13973 718.412 1.28928 719.022 1.2535 714.552C1.25159 714.336 1.18256 714.066 1.18056 714.279ZM1.15694 214.233C1.09098 219.636 1.18797 223.333 1.23891 219.522C1.2898 215.71 1.17693 212.587 1.15694 214.233ZM1.10878 158.205C1.05677 164.52 1.26884 165.514 1.22597 158.75C1.22355 158.357 1.1118 157.836 1.10878 158.205ZM29.1458 1.12428C29.0887 1.1223 25.7466 1.12036 25.6668 1.12233C23.8871 1.16983 30.57 1.17366 29.1458 1.12428ZM1.05635 102.606C1.02767 104.578 1.06078 110.254 1.09645 107.804C1.12515 105.832 1.09204 100.151 1.05635 102.606ZM186.301 744.979C186.366 744.981 188.762 744.983 188.714 744.971C188.551 744.93 185.217 744.942 186.301 744.979ZM1.05391 8.11053C1.04593 22.0718 0.870754 30.5367 0.890521 15.333C0.894097 12.5797 0.946383 21.2669 0.962176 17.7626C0.988767 11.8368 0.89684 7.74997 0.929272 2.00075C0.929481 1.90949 0.942362 1.81254 0.967016 1.72322C0.991531 1.63355 1.02802 1.54687 1.07544 1.46614C1.12239 1.38616 1.18002 1.31208 1.24652 1.24652C1.3124 1.18154 1.38702 1.1249 1.46809 1.07882C1.54844 1.03313 1.63507 0.997866 1.72524 0.974568C1.77365 0.962046 1.82316 0.952951 1.87302 0.94743C2.09679 0.943683 2.00911 0.923676 1.72904 0.988779C1.65504 1.01041 1.56889 1.04434 1.47944 1.09844C1.40848 1.14135 1.33558 1.19705 1.26756 1.26756C1.20846 1.32879 1.15308 1.40124 1.10688 1.48433C1.06495 1.55964 1.03068 1.64364 1.00806 1.73419C0.987038 1.81784 0.976024 1.90895 0.977582 2C1.0112 4.09536 1.05454 7.60457 1.05416 8.1353C1.05407 8.12704 1.05399 8.11878 1.05391 8.11053ZM1.00093 716.659C0.998955 716.742 0.99708 720.059 0.999041 720.138C1.04652 721.935 1.05032 715.253 1.00093 716.659ZM326.115 745.072C326.298 745.076 333.996 745.08 334.247 745.076C338.262 744.998 322.7 744.99 326.115 745.072ZM0.891497 493.274C0.843735 489.655 0.838112 485.326 0.898089 482.44C0.894905 486.037 0.894436 489.658 0.891497 493.274Z" fill="#9E9E9E"/>
</svg>
