<svg width="150" height="439" viewBox="0 0 150 439" fill="none" xmlns="http://www.w3.org/2000/svg">
<path d="M13.265 0.505085C17.2244 0.497207 21.9281 0.499188 26.4704 0.506213C29.4386 0.510804 32.3379 0.517549 34.9154 0.525104C36.9594 0.531034 35.9244 0.557538 37.3354 0.562824C40.095 0.573129 42.6659 0.56013 45.393 0.572406C46.2968 0.576605 45.1718 0.618587 46.1195 0.622028C47.7009 0.627678 49.2564 0.630616 50.8037 0.632222C54.3371 0.635888 57.8274 0.632606 61.486 0.638813C66.0478 0.646564 70.596 0.653439 75.137 0.659611C83.2585 0.670649 91.3571 0.679436 99.4704 0.686961C107.555 0.694459 115.653 0.700702 123.804 0.706669C128.879 0.710385 133.974 0.713994 139.099 0.717731C141.95 0.719798 145.004 0.725325 148.137 0.731209C148.235 0.730355 148.363 0.746229 148.465 0.774644C148.572 0.803402 148.675 0.846386 148.771 0.902026C148.867 0.957541 148.955 1.0256 149.033 1.10387C149.111 1.18203 149.179 1.27044 149.234 1.36629C149.289 1.46206 149.332 1.56523 149.36 1.67231C149.389 1.77399 149.404 1.902 149.403 2C149.392 7.89171 149.381 13.9879 149.392 19.4856C149.394 20.5284 149.43 19.9067 149.433 20.105C149.48 23.2169 149.406 22.1823 149.396 24.2141C149.357 32.2783 149.353 41.2457 149.367 49.0065C149.374 52.3082 149.447 48.9978 149.406 52.3222C149.403 52.5531 149.364 51.7153 149.36 52.6208C149.35 54.6742 149.357 58.57 149.354 60.1615C149.348 63.2285 149.348 63.736 149.348 66.637C149.347 69.0688 149.34 71.783 149.336 74.5C149.334 76.2139 149.333 77.9288 149.336 79.5747C149.338 80.4829 149.379 79.2805 149.385 80.7289C149.392 82.1787 149.389 86.014 149.379 87.307C149.37 88.6003 149.338 88.0496 149.331 88.2785C149.27 90.1614 149.355 94.5979 149.357 95.1685C149.392 105.576 149.344 114.501 149.344 124.27C149.344 131.687 149.36 139.617 149.358 146.674C149.358 146.783 149.358 146.892 149.358 147C149.355 155.266 149.334 162.313 149.337 170.375C149.338 171.237 149.385 170.226 149.385 171.279C149.391 182.464 149.386 193.572 149.354 204.709C149.351 205.826 149.309 204.386 149.304 205.502C149.284 209.52 149.247 214.913 149.257 219.5C149.264 222.713 149.294 225.53 149.368 227.201C149.361 231.829 149.354 237.447 149.317 241.588C149.294 244.257 149.249 241.664 149.268 244.943C149.273 245.683 149.312 244.721 149.315 245.83C149.33 250.5 149.317 255.601 149.338 260.221C149.342 261.16 149.377 260.904 149.384 261.17C149.435 263.407 149.35 267.132 149.344 267.944C149.297 274.127 149.316 278.643 149.314 284.403C149.314 285.739 149.362 284.159 149.363 285.445C149.365 287.612 149.366 289.804 149.366 292C149.366 296.565 149.359 301.148 149.345 305.558C149.34 307.011 149.299 305.675 149.295 306.369C149.276 309.431 149.353 310.11 149.336 313.046C149.333 313.665 149.298 313.316 149.294 313.429C149.235 315.196 149.319 316.731 149.321 317.186C149.347 322.935 149.258 326.61 149.271 332.165C149.272 332.829 149.316 331.331 149.318 333.199C149.328 343.437 149.322 354.16 149.3 364.5C149.295 366.727 149.289 368.937 149.283 371.12C149.278 373.035 149.245 371.668 149.241 371.789C149.177 373.753 149.262 375.024 149.265 375.648C149.288 380.574 149.217 385.176 149.318 388.523C149.291 404.737 149.319 420.893 149.291 437C149.291 437.094 149.277 437.204 149.251 437.298C149.225 437.396 149.186 437.49 149.135 437.577C149.085 437.664 149.023 437.744 148.952 437.815C148.881 437.886 148.8 437.947 148.713 437.998C148.626 438.048 148.532 438.087 148.435 438.112C148.341 438.138 148.23 438.152 148.137 438.151C148.137 438.151 148.137 438.151 148.137 438.151C144.043 438.143 139.951 438.13 135.862 438.112C135.599 438.111 136.071 438.069 135.546 438.068C129.226 438.044 130.44 438.109 126.258 438.189C125.751 438.198 124.743 438.181 123.804 438.16C122.794 438.137 121.864 438.109 121.717 438.106C120.684 438.08 121.755 438.017 121.41 438.012C118.547 437.973 119.014 438.179 115.152 438.179C115.032 438.179 115.539 438.141 115.215 438.137C114.208 438.125 113.21 438.14 112.224 438.127C109.969 438.097 109.166 437.997 105.722 438.055C105.286 438.063 105.952 438.179 102.504 438.174C101.992 438.173 100.823 438.173 99.4704 438.172C97.1991 438.172 94.4102 438.171 93.3415 438.166C91.6386 438.158 92.8078 438.121 92.6864 438.119C88.098 438.069 89.8378 438.049 87.539 437.975C85.2404 437.901 85.8778 438.077 84.9407 438.096C84.0021 438.116 80.6379 438.075 79.8111 438.06C78.9849 438.046 80.0154 438.022 79.2808 438.014C74.409 437.961 77.1424 438.101 75.5372 438.129C75.4028 438.131 75.2694 438.133 75.137 438.135C71.5426 438.186 68.682 438.064 65.3403 438.052C64.4029 438.049 65.1679 438.078 64.3331 438.081C61.027 438.092 59.0386 438.051 55.2772 438.088C54.7731 438.093 52.6404 438.147 50.8037 438.134C50.3989 438.131 50.0084 438.125 49.6529 438.115C49.3742 438.107 50.1663 438.074 48.7571 438.067C46.6523 438.056 42.8597 438.049 40.597 438.06C38.9265 438.068 40.8413 438.121 38.7386 438.105C37.8041 438.097 39.536 438.066 37.7804 438.055C36.0341 438.044 31.5689 438.045 29.8698 438.046C28.1739 438.047 29.1021 438.088 28.9651 438.09C28.535 438.098 27.4529 438.108 26.4704 438.115C25.558 438.121 24.7316 438.125 24.5931 438.125C16.8826 438.128 9.49116 438.11 2.13703 438.096C2.04581 438.096 1.94396 438.083 1.85348 438.058C1.76107 438.033 1.67207 437.996 1.58942 437.948C1.50678 437.9 1.43053 437.841 1.36316 437.774C1.29577 437.706 1.23722 437.63 1.18956 437.547C1.14185 437.464 1.10509 437.375 1.0806 437.283C1.05622 437.193 1.04354 437.091 1.04407 437C1.05493 431.043 1.06205 425.098 1.05232 419.014C1.05061 417.906 1.00792 418.644 1.00722 418.475C0.989334 414.68 1.10284 417.672 1.14083 415.021C1.0542 415.404 1.06988 413.839 1.06038 411.166C1.05573 409.878 1.02219 410.579 1.01876 410.462C0.967807 408.551 1.03361 407.221 1.04708 406.879C1.0966 405.613 1.03808 404.237 1.07118 403.376C1.10404 402.515 1.15274 404.495 1.15212 401.932C1.12111 401.213 1.04007 403.116 1.02693 401.17C0.977254 393.825 1.04084 380.116 1.04744 374.211C1.05301 369.239 1.04981 367.107 1.0554 364.5C1.05644 364.017 1.05777 363.517 1.05953 362.981C1.07979 356.778 1.01967 359.051 0.992144 355.199C0.964627 351.336 1.11256 353.214 1.14437 352.659C1.17615 352.114 1.14343 351.519 1.16091 350.841C1.17838 350.165 1.2 351.628 1.20656 350.038C1.21311 348.448 1.15656 344.1 1.12331 343.536C1.05286 342.344 0.978921 344.304 1.0049 340.096C1.00644 339.854 1.04534 340.639 1.04927 339.712C1.07922 332.352 1.08108 324.705 1.10756 317.353C1.11126 316.342 1.15454 317.246 1.15718 316.658C1.18486 310.53 1.1119 312.721 1.03084 309.362C1.13871 310.117 1.2047 308.259 1.20534 303.609C1.20576 300.813 1.15865 301.295 1.12544 299.487C1.11544 298.944 1.14778 296.966 1.12563 296.608C1.0532 295.426 0.972129 297.289 1.00441 292.494C1.00595 292.284 1.04559 292.953 1.04799 292.227C1.04825 292.15 1.04848 292.074 1.04869 292C1.06125 287.509 0.987802 286.883 0.978778 281.887C0.971579 277.906 1.01777 270.826 1.02529 266.293C1.14656 266.389 1.11879 262.107 1.03517 260.37C1.0386 257.429 1.03387 254.251 1.04543 251.408C1.04937 250.43 1.08448 251.072 1.08827 250.949C1.14779 249.057 1.06644 247.778 1.06325 247.143C1.03225 240.261 1.0939 234.654 1.03365 228.086C1.03148 227.853 0.947237 227.476 1.00875 225.72C1.01299 225.606 1.05131 227.776 1.05428 224.686C1.05556 223.352 1.0647 221.509 1.07154 219.5C1.08055 216.854 1.08556 213.919 1.06337 211.481C1.05397 210.443 0.985588 207.817 1.03902 205.71C1.04627 205.429 1.07044 205.736 1.08388 205.331C1.12672 204.021 1.04157 203.305 1.11391 201.765C1.18624 200.226 1.24042 197.022 1.19051 192.696C1.18906 192.558 1.12157 191.534 1.12264 190.174C1.1244 188.002 1.13846 184.919 1.13802 182.651C1.13778 181.565 1.09588 182.26 1.09511 182.071C1.07163 174.771 1.10899 169.575 1.1252 161.754C1.12826 160.32 1.07111 156.2 1.11629 153.424C1.16453 150.451 1.36149 153.358 1.32562 147C1.32472 146.84 1.32367 146.675 1.32247 146.503C1.30286 143.677 1.04185 140.1 1.17708 135.023C1.14357 125.175 1.21278 116.068 1.16493 106.192C1.16281 105.748 1.08997 104.344 1.09096 103.3C1.09257 101.75 1.12662 100.899 1.12886 99.7927C1.13912 95.1553 1.10999 90.9116 1.11452 86.4405C1.11617 84.743 1.15137 85.3365 1.15334 83.312C1.15527 81.2885 1.10892 79.9394 1.1313 77.1974C1.13857 76.3157 1.15992 75.434 1.1829 74.5C1.21388 73.2404 1.24783 71.8858 1.25417 70.3074C1.1607 70.2026 1.16263 68.3149 1.13796 64.9594C1.13317 64.3144 1.10064 65.0062 1.0967 64.701C1.07993 63.4593 1.10689 62.3101 1.08864 61.1312C1.08426 60.8444 1.05234 60.8309 1.04695 60.5964C0.999948 58.6026 1.07175 55.3179 1.08425 54.7537C1.13172 52.5915 1.09021 51.5812 1.1089 49.9227C1.1276 48.267 1.15097 50.7427 1.16231 48.8085C1.18577 44.7995 1.18062 39.6483 1.18209 35.5767C1.18247 33.9522 1.13987 35.0604 1.13893 34.828C1.12813 31.4687 1.17345 28.0715 1.08858 26.2088C1.30802 23.8797 1.0673 24.1831 1.11122 19.3812C1.11478 19.0029 1.21855 18.5218 1.23378 19.9739C1.249 21.4261 1.21656 23.6281 1.24031 25.6428C1.24589 26.1199 1.34313 28.8531 1.34902 29.226C1.39505 32.147 1.23998 32.5609 1.23146 32.7155C1.13955 34.468 1.2443 37.808 1.25154 38.6875C1.28471 42.711 1.2629 46.1295 1.28658 49.4949C1.30188 51.6958 1.40346 51.9112 1.40035 53.6395C1.39007 59.385 1.24837 61.3904 1.37123 66.8045C1.39744 67.9654 1.50846 66.8118 1.42116 70.9715C1.4171 71.164 1.3727 72.8906 1.36979 74.5C1.36874 75.0753 1.37301 75.6356 1.38631 76.1055C1.39268 76.3297 1.42503 76.3225 1.42775 76.618C1.44533 78.5988 1.41956 79.9197 1.4319 82.0775C1.44425 84.235 1.46265 86.8293 1.45168 89.2928C1.44511 90.7774 1.38483 92.6822 1.37007 93.3929C1.32756 95.3996 1.39727 97.5512 1.34578 98.7944C1.29404 100.048 1.21546 97.5972 1.18202 100.885C1.26609 101.006 1.35237 101.286 1.43691 101.482C1.43395 108.686 1.40676 115.775 1.41048 123.003C1.41102 123.899 1.45621 122.983 1.45796 123.943C1.46514 127.997 1.43293 131.537 1.44576 135.74C1.45586 138.994 1.50371 142.562 1.51576 145.964C1.50229 146.255 1.49134 146.604 1.48245 147C1.42791 149.429 1.451 153.604 1.44344 156.758C1.4404 158.042 1.41471 157.956 1.40633 158.87C1.37533 162.317 1.46033 160.702 1.47371 161.647C1.5308 165.701 1.3384 166.048 1.34316 170.827C1.34334 171.081 1.4459 174.176 1.45229 174.602C1.49393 177.311 1.41659 175.051 1.40901 176.746C1.39517 179.841 1.37067 181.992 1.40071 185.623C1.40961 186.682 1.47353 189.223 1.42409 191.279C1.41761 191.549 1.38372 191.4 1.38173 191.618C1.34864 195.559 1.45515 195.663 1.49123 197.915C1.52729 200.168 1.45376 203.647 1.43257 204.355C1.37775 206.207 1.40914 202.935 1.40376 202.835C1.33974 201.657 1.35076 204.194 1.34535 206.133C1.24091 206.414 1.24718 209.125 1.34017 208.143C1.35032 208.031 1.34058 206.522 1.34535 206.133C1.44782 207.835 1.46095 210.815 1.36519 214.106C1.32031 215.647 1.26798 214.19 1.28713 218.87C1.28813 219.117 1.28999 219.324 1.29252 219.5C1.31177 220.84 1.36996 220.391 1.38728 222.048C1.43202 226.33 1.36494 231.894 1.3755 236.309C1.37934 237.911 1.41871 236.35 1.42268 237.445C1.43337 240.351 1.40383 242.914 1.41896 245.833C1.42038 246.097 1.46159 245.451 1.46211 246.359C1.4669 253.239 1.44051 259.23 1.43977 266.414C1.43944 269.885 1.46217 276.09 1.4576 279.686C1.45285 283.54 1.42812 287.942 1.41338 292C1.40429 294.504 1.399 296.876 1.40456 298.907C1.41388 302.379 1.45509 301.618 1.48317 303.105C1.5376 305.976 1.4401 311.058 1.425 311.742C1.4245 311.763 1.41479 308.775 1.39363 310.37C1.34955 311.297 1.42481 311.709 1.425 311.742C1.41525 312.192 1.4059 318.16 1.41377 319.345C1.41808 319.989 1.45713 319.629 1.45863 319.965C1.49358 327.946 1.5035 335.941 1.48525 344.035C1.48446 344.178 1.44078 343.963 1.43947 344.298C1.42005 348.984 1.47348 351.985 1.5052 355.85C1.53437 359.404 1.52773 362.281 1.46814 364.5C1.46294 364.694 1.45733 364.883 1.45131 365.066C1.46075 367.982 1.4276 372.165 1.40749 374.572C1.38737 376.979 1.4724 377.315 1.47408 377.527C1.52787 384.133 1.47921 387.952 1.47164 394.806C1.46789 398.064 1.48022 404.527 1.48952 408.055C1.49701 410.843 1.47708 412.523 1.48982 415.092C1.49152 415.44 1.52938 415.089 1.53084 415.195C1.57613 418.062 1.48359 416.684 1.46706 417.276C1.40695 419.422 1.37494 420.748 1.40321 424.42C1.40969 425.267 1.54294 427.734 1.55074 429.278C1.56062 431.285 1.51286 430.527 1.52443 432.629C1.52538 432.809 1.55484 432.772 1.55354 434.069C1.55264 435.033 1.55144 436.011 1.55008 437C1.55147 437.071 1.55585 437.095 1.56956 437.152C1.58259 437.202 1.60214 437.249 1.62774 437.294C1.65326 437.338 1.6848 437.379 1.7212 437.416C1.75753 437.452 1.79867 437.484 1.84306 437.51C1.8874 437.536 1.93491 437.556 1.98429 437.569C2.04174 437.583 2.06573 437.588 2.13718 437.589C6.84795 437.596 11.7506 437.606 16.4776 437.603C17.3323 437.603 16.2365 437.556 17.4714 437.555C20.3839 437.552 23.437 437.551 26.4704 437.554C29.4721 437.556 32.4546 437.562 35.2624 437.573C36.6519 437.579 35.7808 437.611 36.0824 437.621C37.9342 437.68 40.5604 437.595 40.9936 437.593C44.4745 437.579 47.6802 437.579 50.8037 437.583C56.9552 437.591 62.7878 437.617 69.7747 437.592C70.2215 437.591 73.0001 437.535 75.137 437.547C75.7426 437.551 76.2967 437.56 76.7316 437.577C76.8664 437.582 78.8148 437.663 80.5376 437.608C80.6446 437.604 79.4305 437.563 81.5492 437.567C83.6679 437.571 87.0778 437.544 89.9901 437.589C90.9122 437.604 93.0914 437.684 95.8417 437.62C95.958 437.617 97.7866 437.555 99.4704 437.539C100.382 437.531 101.25 437.536 101.782 437.571C102.028 437.587 101.771 437.692 105.054 437.638C105.681 437.628 104.542 437.604 106.195 437.59C108.726 437.567 112.08 437.595 115.193 437.548C115.735 437.54 118.046 437.468 119.899 437.523C120.189 437.531 119.638 437.566 120.616 437.57C121.669 437.575 122.733 437.577 123.804 437.578C127.467 437.581 131.212 437.571 134.869 437.59C136.542 437.599 135.687 437.656 137.431 437.671C139.176 437.686 142.692 437.701 144.517 437.675C146.344 437.649 144.349 437.558 147.084 437.551C147.435 437.55 147.786 437.549 148.137 437.548C148.207 437.546 148.224 437.542 148.279 437.529C148.325 437.517 148.369 437.498 148.41 437.474C148.451 437.45 148.49 437.42 148.523 437.386C148.557 437.352 148.587 437.314 148.61 437.273C148.634 437.231 148.652 437.187 148.664 437.142C148.677 437.087 148.681 437.07 148.682 437C148.664 425.996 148.71 415.075 148.717 404.073C148.718 402.311 148.686 403.772 148.685 401.176C148.683 391.606 148.652 375.083 148.721 366.779C148.731 365.601 148.741 364.894 148.749 364.5C148.766 363.787 148.78 364.1 148.793 364.5C148.81 365.012 148.824 365.667 148.835 364.5C148.837 364.238 148.839 363.883 148.841 363.415C148.852 360.961 148.746 358.307 148.743 357.715C148.709 351.929 148.756 347.908 148.742 342.7C148.739 341.625 148.696 342.68 148.694 341.764C148.687 338.638 148.706 335.352 148.702 332.365C148.701 331.025 148.668 331.272 148.67 330.039C148.676 327.088 148.69 324.479 148.72 321.602C148.723 321.34 148.764 323.108 148.765 320.925C148.768 317.392 148.798 313.006 148.767 308.941C148.757 307.735 148.683 307.688 148.734 305.095C148.745 304.551 148.835 305.245 148.757 302.225C148.744 301.717 148.64 296.644 148.707 294.154C148.718 293.738 148.752 292.916 148.772 292C148.784 291.467 148.791 290.904 148.787 290.37C148.785 290.173 148.745 290.961 148.741 289.76C148.728 285.524 148.732 281.084 148.719 276.733C148.716 275.571 148.675 277.301 148.671 275.57C148.66 270.807 148.671 264.86 148.684 260.203C148.689 258.486 148.723 259.673 148.727 259.548C148.788 257.539 148.706 256.351 148.701 255.684C148.672 251.537 148.711 248.378 148.7 244.556C148.698 243.501 148.659 244.249 148.655 244.039C148.621 241.861 148.691 243.483 148.699 242.104C148.721 238.242 148.718 233.937 148.713 230.031C148.711 228.597 148.666 230.209 148.664 228.922C148.661 225.813 148.66 222.655 148.661 219.5C148.664 214.92 148.671 210.346 148.686 205.943C148.691 204.543 148.726 205.424 148.734 205.132C148.789 203.121 148.713 200.173 148.706 199.494C148.673 196.41 148.704 195.212 148.698 192.489C148.669 179.183 148.69 162.754 148.702 150.195C148.704 149.115 148.705 148.05 148.706 147C148.723 132.139 148.751 120.098 148.743 105.521C148.743 104.529 148.696 105.53 148.695 104.675C148.685 94.5661 148.699 84.6012 148.692 74.5C148.691 73.5693 148.69 72.6374 148.689 71.7042C148.688 70.7965 148.644 72.1049 148.641 70.648C148.634 67.6595 148.636 63.8738 148.65 60.8522C148.657 59.3785 148.695 61.3553 148.701 59.8718C148.715 56.4176 148.718 52.7149 148.711 49.1669C148.708 47.657 148.663 49.9351 148.663 47.9725C148.658 34.604 148.65 21.4746 148.709 7.96511C148.713 7.03897 148.804 6.22633 148.787 4.25717C148.761 4.10884 148.731 4.1169 148.704 4.05216C148.704 3.36801 148.703 2.68342 148.703 2.00043C148.701 1.92941 148.697 1.90933 148.684 1.85324C148.671 1.80583 148.652 1.76018 148.627 1.71749C148.602 1.67482 148.572 1.6352 148.537 1.60018C148.502 1.56514 148.462 1.53473 148.419 1.51009C148.377 1.48542 148.331 1.46655 148.284 1.45393C148.228 1.44063 148.207 1.43652 148.137 1.43496C140.007 1.43879 131.907 1.4353 123.804 1.42985C115.707 1.4244 107.607 1.417 99.4704 1.41298C97.4894 1.412 95.5062 1.41122 93.5205 1.41072C92.6976 1.41053 94.1197 1.45907 92.5266 1.45894C86.6861 1.45848 80.9527 1.46371 75.137 1.45534C71.7718 1.4505 68.379 1.4411 64.9221 1.42342C63.9863 1.4187 64.4664 1.33329 61.7088 1.34621C61.2225 1.34856 57.0692 1.35996 55.9954 1.3785C55.8496 1.38129 56.6073 1.42116 55.269 1.42232C53.7923 1.42347 52.3021 1.42407 50.8037 1.42413C44.4105 1.42437 37.8672 1.41465 31.5774 1.39491C30.3244 1.39091 31.6587 1.34845 30.7663 1.34523C29.3567 1.34021 27.9196 1.33791 26.4704 1.33694C21.4106 1.33356 16.2026 1.34639 11.5002 1.31642C7.45094 1.29047 8.95007 1.21709 6.79838 1.14485C6.49404 1.13466 3.98665 1.13305 3.85698 1.09102C3.5241 0.98534 4.7386 0.869621 4.24026 0.756976C4.13497 0.732713 0.776924 0.758846 2.7651 0.700214C2.904 0.69629 5.3386 0.67683 5.93824 0.65694C6.35573 0.643188 5.6034 0.600447 6.45522 0.582843C7.30696 0.565256 8.24292 0.601084 9.65509 0.580402C11.0666 0.559464 10.446 0.510841 13.265 0.505085ZM1.31758 385.411C1.27675 387.64 1.4263 387.969 1.39052 385.558C1.38861 385.441 1.31959 385.296 1.31758 385.411ZM1.29396 115.734C1.228 118.648 1.32499 120.642 1.37593 118.586C1.42682 116.531 1.31396 114.846 1.29396 115.734ZM1.24581 85.518C1.1938 88.9236 1.40586 89.4597 1.36299 85.8121C1.36057 85.6 1.24883 85.3189 1.24581 85.518ZM16.7768 1.12428C16.7461 1.1223 14.9437 1.12036 14.9006 1.12233C13.9408 1.16983 17.5449 1.17366 16.7768 1.12428ZM1.19338 55.5336C1.16469 56.5967 1.19781 59.6579 1.23348 58.3368C1.26217 57.2735 1.22906 54.2095 1.19338 55.5336ZM65.2468 437.979C65.2819 437.981 66.5741 437.983 66.5481 437.971C66.4604 437.93 64.6621 437.942 65.2468 437.979ZM1.19094 4.57175C1.18295 12.1011 1.00778 16.6664 1.02754 8.46687C1.03112 6.98199 1.08341 11.667 1.0992 9.77714C1.12368 6.83545 1.04773 4.73399 1.0608 2.00042C1.06091 1.90989 1.07379 1.81164 1.09869 1.7218C1.12329 1.63197 1.15999 1.54485 1.20796 1.46353C1.25512 1.38354 1.31313 1.30921 1.38037 1.24335C1.44649 1.17855 1.52157 1.12192 1.60343 1.0759C1.68394 1.0306 1.77095 0.995633 1.86178 0.972749C1.9292 0.955749 1.99836 0.945456 2.06841 0.942085C2.21805 0.947376 2.11016 0.928159 1.86735 0.993589C1.79324 1.01632 1.70783 1.05151 1.62068 1.10572C1.55011 1.14956 1.47854 1.20592 1.41276 1.27574C1.3544 1.33759 1.30065 1.41005 1.25649 1.49162C1.21554 1.56717 1.18292 1.65046 1.16191 1.7387C1.14188 1.82268 1.1324 1.91063 1.13481 2.00042C1.13481 2.00028 1.13481 2.0008 1.13481 2C1.16335 3.078 1.19149 4.35422 1.19118 4.58511C1.1911 4.58064 1.19102 4.57618 1.19094 4.57175ZM1.13796 386.694C1.13598 386.739 1.1341 388.528 1.13606 388.571C1.18354 389.539 1.18735 385.936 1.13796 386.694ZM140.649 438.072C140.748 438.076 144.899 438.08 145.034 438.076C147.2 437.998 138.807 437.99 140.649 438.072ZM1.02852 266.222C0.980759 264.27 0.975135 261.935 1.03511 260.379C1.03193 262.319 1.03146 264.272 1.02852 266.222Z" fill="#9E9E9E"/>
</svg>
