<svg width="717" height="717" viewBox="0 0 717 717" fill="none" xmlns="http://www.w3.org/2000/svg">
<g clip-path="url(#clip0_233_82)">
<path d="M357.87 294.14C434.582 294.14 496.77 231.952 496.77 155.24C496.77 78.5275 434.582 16.3398 357.87 16.3398C281.158 16.3398 218.97 78.5275 218.97 155.24C218.97 231.952 281.158 294.14 357.87 294.14Z" stroke="white" stroke-miterlimit="10"/>
<path d="M534.08 600.2C610.792 600.2 672.98 538.012 672.98 461.3C672.98 384.588 610.792 322.4 534.08 322.4C457.368 322.4 395.18 384.588 395.18 461.3C395.18 538.012 457.368 600.2 534.08 600.2Z" stroke="white" stroke-miterlimit="10"/>
<path d="M358.08 715.65C434.792 715.65 496.98 681.642 496.98 639.69C496.98 597.738 434.792 563.73 358.08 563.73C281.368 563.73 219.18 597.738 219.18 639.69C219.18 681.642 281.368 715.65 358.08 715.65Z" stroke="white" stroke-miterlimit="10"/>
<path d="M180.5 600.2C257.212 600.2 319.4 538.012 319.4 461.3C319.4 384.588 257.212 322.4 180.5 322.4C103.788 322.4 41.6001 384.588 41.6001 461.3C41.6001 538.012 103.788 600.2 180.5 600.2Z" stroke="white" stroke-miterlimit="10"/>
<path d="M264.26 350.49L304.52 283.52" stroke="white" stroke-miterlimit="10"/>
<path d="M224.05 329.37L267.5 261.26" stroke="white" stroke-miterlimit="10"/>
<path d="M413.54 282.53L451.84 348.74" stroke="white" stroke-miterlimit="10"/>
<path d="M446.17 262.47L488.8 329.95" stroke="white" stroke-miterlimit="10"/>
<path d="M318.14 480.04L396.51 480.65" stroke="white" stroke-miterlimit="10"/>
<path d="M317.72 439.66L396.73 440.43" stroke="white" stroke-miterlimit="10"/>
<path d="M358.08 715.66C160.59 715.66 0.5 555.57 0.5 358.08C0.5 160.59 160.59 0.5 358.08 0.5C555.56 0.5 715.66 160.59 715.66 358.08C715.66 555.57 555.57 715.66 358.08 715.66ZM358.08 715.66C309.01 715.66 265.88 701.88 241.17 681.07C108.8 633.47 14.13 506.84 14.13 358.08C14.13 168.56 167.77 14.93 357.29 14.93C546.81 14.93 700.44 168.57 700.44 358.08C700.44 505.82 607.07 631.75 476.12 680.09C451.61 701.44 407.91 715.66 358.08 715.66Z" stroke="white" stroke-miterlimit="10"/>
</g>
<defs>
<clipPath id="clip0_233_82">
<rect width="716.16" height="716.16" fill="white"/>
</clipPath>
</defs>
</svg>
